<?xml version="1.0" encoding="UTF-8" standalone="no" ?>
<!DOCTYPE svg PUBLIC "-//W3C//DTD SVG 1.1//EN" "http://www.w3.org/Graphics/SVG/1.1/DTD/svg11.dtd">
<svg xmlns="http://www.w3.org/2000/svg" xmlns:xlink="http://www.w3.org/1999/xlink" version="1.1" width="400" height="400" viewBox="0 0 400 400" xml:space="preserve">
<desc>Created with Fabric.js 3.6.2</desc>
<defs>
</defs>
<g transform="matrix(0.39 0 0 0.39 258.4 135.31)" id="_x35_29_x2C__gallert_x2C__photo_x2C__love_x2C__wedding"  >
<path style="stroke: none; stroke-width: 1; stroke-dasharray: none; stroke-linecap: butt; stroke-dashoffset: 0; stroke-linejoin: miter; stroke-miterlimit: 4; fill: rgb(142,170,57); fill-rule: nonzero; opacity: 1;"  transform=" translate(-405.51, -90.39)" d="M 405.51 72.27 c 10.01 0 18.12 8.12 18.12 18.13 c 0 10.01 -8.11 18.12 -18.12 18.12 s -18.12 -8.11 -18.12 -18.12 C 387.39 80.389 395.5 72.27 405.51 72.27 z" stroke-linecap="round" />
</g>
<g transform="matrix(0.39 0 0 0.39 258.4 134.01)" id="_x35_29_x2C__gallert_x2C__photo_x2C__love_x2C__wedding"  >
<path style="stroke: none; stroke-width: 1; stroke-dasharray: none; stroke-linecap: butt; stroke-dashoffset: 0; stroke-linejoin: miter; stroke-miterlimit: 4; fill: rgb(103,149,25); fill-rule: nonzero; opacity: 1;"  transform=" translate(-405.51, -87.08)" d="M 409.57 84.698 c 5.648 0 10.689 2.586 14.013 6.638 c 0.016 -0.312 0.047 -0.62 0.047 -0.937 c 0 -10.01 -8.11 -18.13 -18.12 -18.13 s -18.12 8.12 -18.12 18.13 c 0 4.362 1.542 8.362 4.108 11.488 C 391.99 92.317 399.878 84.698 409.57 84.698 z" stroke-linecap="round" />
</g>
<g transform="matrix(0.39 0 0 0.39 155.76 248.58)" id="_x35_29_x2C__gallert_x2C__photo_x2C__love_x2C__wedding"  >
<path style="stroke: none; stroke-width: 1; stroke-dasharray: none; stroke-linecap: butt; stroke-dashoffset: 0; stroke-linejoin: miter; stroke-miterlimit: 4; fill: rgb(255,197,146); fill-rule: nonzero; opacity: 1;"  transform=" translate(-142.73, -380.35)" d="M 142.73 362.229 c 10.01 0 18.13 8.12 18.13 18.13 s -8.12 18.12 -18.13 18.12 c -10 0 -18.12 -8.11 -18.12 -18.12 S 132.73 362.229 142.73 362.229 z" stroke-linecap="round" />
</g>
<g transform="matrix(0.39 0 0 0.39 155.76 247.48)" id="_x35_29_x2C__gallert_x2C__photo_x2C__love_x2C__wedding"  >
<path style="stroke: none; stroke-width: 1; stroke-dasharray: none; stroke-linecap: butt; stroke-dashoffset: 0; stroke-linejoin: miter; stroke-miterlimit: 4; fill: rgb(239,168,115); fill-rule: nonzero; opacity: 1;"  transform=" translate(-142.73, -377.55)" d="M 147.73 375.354 c 5.155 0 9.797 2.164 13.099 5.619 c 0.007 -0.205 0.031 -0.406 0.031 -0.613 c 0 -10.01 -8.12 -18.13 -18.13 -18.13 c -10 0 -18.12 8.12 -18.12 18.13 c 0 4.855 1.922 9.254 5.031 12.507 C 129.969 383.145 137.938 375.354 147.73 375.354 z" stroke-linecap="round" />
</g>
<g transform="matrix(0.39 0 0 0.39 261.94 255.66)" id="_x35_29_x2C__gallert_x2C__photo_x2C__love_x2C__wedding"  >
<path style="stroke: none; stroke-width: 1; stroke-dasharray: none; stroke-linecap: butt; stroke-dashoffset: 0; stroke-linejoin: miter; stroke-miterlimit: 4; fill: rgb(239,62,92); fill-rule: nonzero; opacity: 1;"  transform=" translate(-414.57, -398.48)" d="M 414.57 380.359 c 10.01 0 18.12 8.11 18.12 18.12 s -8.11 18.12 -18.12 18.12 c -10.011 0 -18.12 -8.11 -18.12 -18.12 S 404.56 380.359 414.57 380.359 z" stroke-linecap="round" />
</g>
<g transform="matrix(0.39 0 0 0.39 261.94 254.56)" id="_x35_29_x2C__gallert_x2C__photo_x2C__love_x2C__wedding"  >
<path style="stroke: none; stroke-width: 1; stroke-dasharray: none; stroke-linecap: butt; stroke-dashoffset: 0; stroke-linejoin: miter; stroke-miterlimit: 4; fill: rgb(228,42,83); fill-rule: nonzero; opacity: 1;"  transform=" translate(-414.57, -395.68)" d="M 419.57 393.479 c 5.152 0 9.791 2.159 13.09 5.609 c 0.006 -0.203 0.03 -0.403 0.03 -0.608 c 0 -10.01 -8.11 -18.12 -18.12 -18.12 c -10.011 0 -18.12 8.11 -18.12 18.12 c 0 4.857 1.921 9.258 5.03 12.511 C 401.805 401.265 409.765 393.479 419.57 393.479 z" stroke-linecap="round" />
</g>
<g transform="matrix(0.39 0 0 0.39 249.37 219.9)" id="_x35_29_x2C__gallert_x2C__photo_x2C__love_x2C__wedding"  >
<polygon style="stroke: none; stroke-width: 1; stroke-dasharray: none; stroke-linecap: butt; stroke-dashoffset: 0; stroke-linejoin: miter; stroke-miterlimit: 4; fill: rgb(176,183,220); fill-rule: nonzero; opacity: 1;"  points="59.37,-53.45 -59.37,91.52 5.93,-64.03 17.48,-91.53 " />
</g>
<g transform="matrix(0.39 0 0 0.39 249.37 219.9)" id="_x35_29_x2C__gallert_x2C__photo_x2C__love_x2C__wedding"  >
<polygon style="stroke: none; stroke-width: 1; stroke-dasharray: none; stroke-linecap: butt; stroke-dashoffset: 0; stroke-linejoin: miter; stroke-miterlimit: 4; fill: rgb(161,170,206); fill-rule: nonzero; opacity: 1;"  points="10.94,-47.82 22.49,-75.32 53.9,-46.77 59.37,-53.45 17.48,-91.53 5.93,-64.03 -59.37,91.52 -35.14,61.94 " />
</g>
<g transform="matrix(0.39 0 0 0.39 213.01 197.41)" id="_x35_29_x2C__gallert_x2C__photo_x2C__love_x2C__wedding"  >
<polygon style="stroke: none; stroke-width: 1; stroke-dasharray: none; stroke-linecap: butt; stroke-dashoffset: 0; stroke-linejoin: miter; stroke-miterlimit: 4; fill: rgb(218,220,236); fill-rule: nonzero; opacity: 1;"  points="138.95,-101.53 110.57,-33.94 99.02,-6.44 33.72,149.11 -91.69,96.46 -138.94,76.62 25.61,76.62 25.61,-149.11 " />
</g>
<g transform="matrix(0.39 0 0 0.39 213.01 185.84)" id="_x35_29_x2C__gallert_x2C__photo_x2C__love_x2C__wedding"  >
<polygon style="stroke: none; stroke-width: 1; stroke-dasharray: none; stroke-linecap: butt; stroke-dashoffset: 0; stroke-linejoin: miter; stroke-miterlimit: 4; fill: rgb(195,198,221); fill-rule: nonzero; opacity: 1;"  points="36.12,119.5 36.12,-106.23 135.78,-64.39 138.95,-71.92 25.61,-119.5 25.61,106.23 -138.94,106.23 -107.34,119.5 " />
</g>
<g transform="matrix(0.39 0 0 0.39 175.22 174.25)" id="_x35_29_x2C__gallert_x2C__photo_x2C__love_x2C__wedding"  >
<path style="stroke: none; stroke-width: 1; stroke-dasharray: none; stroke-linecap: butt; stroke-dashoffset: 0; stroke-linejoin: miter; stroke-miterlimit: 4; fill: rgb(255,255,255); fill-rule: nonzero; opacity: 1;"  transform=" translate(-192.57, -190.07)" d="M 314.9 100.25 v 225.74 H 150.35 h -80.1 V 54.149 h 131.98 h 2.87 h 109.8 V 100.25 z" stroke-linecap="round" />
</g>
<g transform="matrix(0.39 0 0 0.39 175.22 174.25)" id="_x35_29_x2C__gallert_x2C__photo_x2C__love_x2C__wedding"  >
<polygon style="stroke: none; stroke-width: 1; stroke-dasharray: none; stroke-linecap: butt; stroke-dashoffset: 0; stroke-linejoin: miter; stroke-miterlimit: 4; fill: rgb(225,225,225); fill-rule: nonzero; opacity: 1;"  points="-112.49,-126.2 19.49,-126.2 22.36,-126.2 122.32,-126.2 122.32,-135.92 12.53,-135.92 9.66,-135.92 -122.32,-135.92 -122.32,135.92 -112.49,135.92 " />
</g>
<g transform="matrix(0.39 0 0 0.39 175.22 161.86)" id="_x35_29_x2C__gallert_x2C__photo_x2C__love_x2C__wedding"  >
<path style="stroke: none; stroke-width: 1; stroke-dasharray: none; stroke-linecap: butt; stroke-dashoffset: 0; stroke-linejoin: miter; stroke-miterlimit: 4; fill: rgb(225,225,225); fill-rule: nonzero; opacity: 1;"  transform=" translate(-192.57, -158.36)" d="M 287.71 81.339 v 154.04 H 97.43 V 81.339 H 287.71 z M 233.35 139.77 c 0 -12.25 -9.94 -22.19 -22.22 -22.19 c -11.1 0 -16.64 5.55 -22.19 16.65 c -5.55 -11.1 -11.1 -16.65 -22.2 -16.65 c -12.25 0 -22.19 9.94 -22.19 22.19 c 0 22.2 22.19 34.83 44.39 57.02 C 211.13 174.599 233.35 161.969 233.35 139.77 z" stroke-linecap="round" />
</g>
<g transform="matrix(0.39 0 0 0.39 175.22 161.86)" id="_x35_29_x2C__gallert_x2C__photo_x2C__love_x2C__wedding"  >
<polygon style="stroke: none; stroke-width: 1; stroke-dasharray: none; stroke-linecap: butt; stroke-dashoffset: 0; stroke-linejoin: miter; stroke-miterlimit: 4; fill: rgb(209,206,201); fill-rule: nonzero; opacity: 1;"  points="-84.14,-65.02 95.14,-65.02 95.14,-77.02 -95.14,-77.02 -95.14,77.02 -84.14,77.02 " />
</g>
<g transform="matrix(0.39 0 0 0.39 173.81 161.4)" id="_x35_29_x2C__gallert_x2C__photo_x2C__love_x2C__wedding"  >
<path style="stroke: none; stroke-width: 1; stroke-dasharray: none; stroke-linecap: butt; stroke-dashoffset: 0; stroke-linejoin: miter; stroke-miterlimit: 4; fill: rgb(243,63,77); fill-rule: nonzero; opacity: 1;"  transform=" translate(-188.95, -157.18)" d="M 211.13 117.579 c 12.28 0 22.22 9.94 22.22 22.19 c 0 22.2 -22.22 34.83 -44.41 57.02 c -22.2 -22.19 -44.39 -34.82 -44.39 -57.02 c 0 -12.25 9.94 -22.19 22.19 -22.19 c 11.1 0 16.65 5.55 22.2 16.65 C 194.49 123.129 200.03 117.579 211.13 117.579 z" stroke-linecap="round" />
</g>
<g transform="matrix(0.39 0 0 0.39 165.85 161.4)" id="_x35_29_x2C__gallert_x2C__photo_x2C__love_x2C__wedding"  >
<path style="stroke: none; stroke-width: 1; stroke-dasharray: none; stroke-linecap: butt; stroke-dashoffset: 0; stroke-linejoin: miter; stroke-miterlimit: 4; fill: rgb(221,44,66); fill-rule: nonzero; opacity: 1;"  transform=" translate(-168.58, -157.19)" d="M 157.235 144.77 c 0 -12.25 9.94 -22.19 22.19 -22.19 c 0.521 0 1.017 0.024 1.514 0.049 c -3.671 -3.359 -8.093 -5.049 -14.199 -5.049 c -12.25 0 -22.19 9.94 -22.19 22.19 c 0 22.2 22.19 34.83 44.39 57.02 c 1.224 -1.224 2.447 -2.415 3.668 -3.583 C 173.792 175.984 157.235 163.944 157.235 144.77 z" stroke-linecap="round" />
</g>
<g transform="matrix(0.39 0 0 0.39 182.3 259.2)" id="_x35_29_x2C__gallert_x2C__photo_x2C__love_x2C__wedding"  >
<path style="stroke: none; stroke-width: 1; stroke-dasharray: none; stroke-linecap: butt; stroke-dashoffset: 0; stroke-linejoin: miter; stroke-miterlimit: 4; fill: rgb(255,255,255); fill-rule: nonzero; opacity: 1;"  transform=" translate(-210.7, -407.54)" d="M 188.042 421.601 c -1.984 0 -3.862 -1.189 -4.644 -3.145 c -1.025 -2.563 0.222 -5.474 2.786 -6.499 l 45.31 -18.12 c 2.56 -1.023 5.473 0.222 6.499 2.786 c 1.025 2.563 -0.222 5.474 -2.786 6.499 l -45.31 18.12 C 189.288 421.485 188.66 421.601 188.042 421.601 z" stroke-linecap="round" />
</g>
<g transform="matrix(0.39 0 0 0.39 178.76 273.35)" id="_x35_29_x2C__gallert_x2C__photo_x2C__love_x2C__wedding"  >
<path style="stroke: none; stroke-width: 1; stroke-dasharray: none; stroke-linecap: butt; stroke-dashoffset: 0; stroke-linejoin: miter; stroke-miterlimit: 4; fill: rgb(255,255,255); fill-rule: nonzero; opacity: 1;"  transform=" translate(-201.63, -443.79)" d="M 178.981 457.851 c -1.984 0 -3.861 -1.188 -4.644 -3.144 c -1.026 -2.563 0.221 -5.474 2.785 -6.5 l 45.31 -18.13 c 2.563 -1.023 5.474 0.221 6.5 2.785 c 1.026 2.563 -0.221 5.474 -2.785 6.5 l -45.31 18.13 C 180.229 457.735 179.6 457.851 178.981 457.851 z" stroke-linecap="round" />
</g>
</svg>